<svg id="Layer_1" data-name="Layer 1" xmlns="http://www.w3.org/2000/svg" xmlns:xlink="http://www.w3.org/1999/xlink" viewBox="0 0 242.81 208.28"><defs><style>.cls-1{fill:none;}.cls-2{isolation:isolate;}.cls-3{clip-path:url(#clip-path);}.cls-4{fill:#bdbdbd;}.cls-5{fill:#c2c2c2;}.cls-6{fill:#c7c7c7;}.cls-7{fill:#ccc;}.cls-8{fill:#d1d1d1;}.cls-9{fill:#d6d6d6;}.cls-10{fill:#dbdbdb;}.cls-11{fill:#e0e0e0;}.cls-12{fill:#e6e6e6;}.cls-13{fill:#ebebeb;}.cls-14{fill:#f0f0f0;}.cls-15{fill:#b8b8b8;}.cls-16{fill:#b3b3b3;}.cls-17{fill:#adadad;}.cls-18{fill:#a8a8a8;}.cls-19{fill:#a3a3a3;}.cls-20{fill:#9e9e9e;}.cls-21{fill:#999;}.cls-22{fill:#949494;}.cls-23{fill:#8f8f8f;}.cls-24{fill:#858585;}.cls-25{fill:gray;}.cls-26{fill:#acacac;}.cls-27{clip-path:url(#clip-path-2);}.cls-28{fill:#8a8a8a;}.cls-29{clip-path:url(#clip-path-3);}.cls-30{fill:#0087b8;}.cls-31{fill:#0083b3;}.cls-32{fill:#007fae;}.cls-33{fill:#007ca9;}.cls-34{fill:#0078a4;}.cls-35{fill:#00749f;}.cls-36{fill:#00719a;}.cls-37{fill:#006d95;}.cls-38{clip-path:url(#clip-path-4);}.cls-39{fill:#005b7d;}.cls-40{clip-path:url(#clip-path-5);}.cls-41{clip-path:url(#clip-path-6);}.cls-42{fill:#005f81;}.cls-43{clip-path:url(#clip-path-7);}.cls-44{clip-path:url(#clip-path-8);}.cls-45{fill:#006286;}.cls-46{fill:#00668b;}.cls-47{clip-path:url(#clip-path-9);}.cls-48{fill:#007ba8;}.cls-49{fill:#005f82;}.cls-50{clip-path:url(#clip-path-10);}.cls-51{fill:#006a90;}.cls-52{fill:#008abd;}.cls-53{fill:#008ec2;}.cls-54{fill:#0092c7;}.cls-55{fill:#0095cc;}.cls-56{fill:#0099d1;}.cls-57{fill:#009dd6;}.cls-58{fill:#00a0db;}.cls-59{fill:#00a4e0;}.cls-60{fill:#00a7e5;}.cls-61{fill:#00abea;}.cls-62{fill:#00aeef;}.cls-63{fill:#f4f4f4;}.cls-64{clip-path:url(#clip-path-11);}.cls-65{clip-path:url(#clip-path-12);}.cls-66{clip-path:url(#clip-path-13);}.cls-67{clip-path:url(#clip-path-14);}.cls-68{clip-path:url(#clip-path-15);}.cls-69{clip-path:url(#clip-path-16);}.cls-70{clip-path:url(#clip-path-17);}.cls-71{clip-path:url(#clip-path-18);}.cls-72{clip-path:url(#clip-path-19);}.cls-73{clip-path:url(#clip-path-20);}.cls-74{clip-path:url(#clip-path-21);}.cls-75{clip-path:url(#clip-path-22);}.cls-76{clip-path:url(#clip-path-23);}.cls-77{fill:#939393;}.cls-78{clip-path:url(#clip-path-24);}.cls-79{clip-path:url(#clip-path-25);}.cls-80{clip-path:url(#clip-path-26);}</style><clipPath id="clip-path" transform="translate(-120.12 -154.49)"><path class="cls-1" d="M341.84,322.68l-22.79-12.4c11-1.55,20-15.69,20-31.52l22.79,12.4C361.83,307,352.85,321.13,341.84,322.68Z"/></clipPath><clipPath id="clip-path-2" transform="translate(-120.12 -154.49)"><path class="cls-1" d="M327.88,157.16l22.79,12.4c6.74,3.66,11.4,12.9,11.37,24.34l-22.79-12.4C339.27,170.06,334.62,160.82,327.88,157.16Z"/></clipPath><clipPath id="clip-path-3" transform="translate(-120.12 -154.49)"><path class="cls-1" d="M319.33,155.59a13.65,13.65,0,0,1,8.55,1.57l22.79,12.4a13.63,13.63,0,0,0-8.54-1.57Z"/></clipPath><clipPath id="clip-path-4" transform="translate(-120.12 -154.49)"><path class="cls-1" d="M328.34,156.28l22.79,12.4a14.41,14.41,0,0,0-9-1.65l-22.79-12.4A14.42,14.42,0,0,1,328.34,156.28Z"/></clipPath><clipPath id="clip-path-5" transform="translate(-120.12 -154.49)"><path class="cls-1" d="M155.18,346.14l-22.8-12.39a13.71,13.71,0,0,0,8.55,1.56l22.79,12.4A13.62,13.62,0,0,1,155.18,346.14Z"/></clipPath><clipPath id="clip-path-6" transform="translate(-120.12 -154.49)"><path class="cls-1" d="M132.39,333.75a19.94,19.94,0,0,1-8-8.78l22.79,12.4a20,20,0,0,0,8,8.78Z"/></clipPath><clipPath id="clip-path-7" transform="translate(-120.12 -154.49)"><path class="cls-1" d="M122.66,320.67q11.4,6.19,22.79,12.4a30.16,30.16,0,0,0,1.74,4.3L124.4,325A29.69,29.69,0,0,1,122.66,320.67Z"/></clipPath><clipPath id="clip-path-8" transform="translate(-120.12 -154.49)"><path class="cls-1" d="M122.56,320.35a37.43,37.43,0,0,1-1.55-11l22.79,12.4a37.76,37.76,0,0,0,1.55,10.95L131,324.93l-5.76-3.13C124.43,321.36,123.14,321.05,122.56,320.35Z"/></clipPath><clipPath id="clip-path-9" transform="translate(-120.12 -154.49)"><path class="cls-1" d="M154.72,347l-22.8-12.4c-7-3.8-11.82-13.32-11.8-25.09l22.79,12.4C142.89,333.7,147.72,343.22,154.72,347Z"/></clipPath><clipPath id="clip-path-10" transform="translate(-120.12 -154.49)"><path class="cls-1" d="M144,224.55l-22.79-12.4c0-9,3-17.94,8-24.08,3.48-4.25,7.63-6.82,12-7.44L164,193c-4.35.61-8.49,3.19-12,7.44C147,206.61,144,215.6,144,224.55Z"/></clipPath><clipPath id="clip-path-11" transform="translate(-120.12 -154.49)"><path class="cls-1" d="M143.1,224.67l-22.8-12.4c0-9.32,3-18.36,8.25-24.78,3.65-4.46,8-7.17,12.61-7.82L164,192.07c-4.59.65-9,3.35-12.61,7.82C146.08,206.31,143.08,215.35,143.1,224.67Z"/></clipPath><clipPath id="clip-path-12" transform="translate(-120.12 -154.49)"><path class="cls-1" d="M324.19,279l-22.79-12.4a3.33,3.33,0,0,0,1.07.37,3.72,3.72,0,0,0,1,0c1.83-.25,3.77-1.88,5.83-4.77,3.13-4.39,5.25-10.43,6.43-18.44l22.79,12.4c-1.17,8-3.3,14-6.43,18.44-2.06,2.89-4,4.52-5.83,4.77a3.29,3.29,0,0,1-1,0A3.36,3.36,0,0,1,324.19,279Z"/></clipPath><clipPath id="clip-path-13" transform="translate(-120.12 -154.49)"><path class="cls-1" d="M310.87,217.79l22.79,12.4c1.55.84,2.86,3,3.89,6.63a38.7,38.7,0,0,1,1.52,10.54,69.29,69.29,0,0,1-.55,8.8l-22.79-12.4a69.29,69.29,0,0,0,.55-8.8,38.7,38.7,0,0,0-1.52-10.54C313.73,220.78,312.41,218.63,310.87,217.79Z"/></clipPath><clipPath id="clip-path-14" transform="translate(-120.12 -154.49)"><path class="cls-1" d="M317.13,297.76l-22.79-12.4c-3.51-1.91-6.29-5.27-8.38-10.17-2.68-6.11-4-13.77-4-22.88a89.49,89.49,0,0,1,6.62-34.3c5.14-12.59,11.72-19.41,19.75-20.54a16.28,16.28,0,0,1,4.55.11,15.41,15.41,0,0,1,5,1.68l22.79,12.4a15.34,15.34,0,0,0-5-1.68,16.27,16.27,0,0,0-4.55-.11c-8,1.13-14.6,7.95-19.75,20.54a89.67,89.67,0,0,0-6.62,34.3c0,9.11,1.29,16.77,4,22.88C310.84,292.49,313.62,295.85,317.13,297.76Z"/></clipPath><clipPath id="clip-path-15" transform="translate(-120.12 -154.49)"><path class="cls-1" d="M271.58,286.4,248.79,274a3.25,3.25,0,0,0,1.07.37,3.35,3.35,0,0,0,1,0c1.83-.26,3.77-1.89,5.82-4.77,3.14-4.39,5.26-10.44,6.44-18.44l22.79,12.4c-1.18,8-3.3,14.05-6.43,18.44-2.06,2.88-4,4.51-5.83,4.77a3.72,3.72,0,0,1-1,0A3.41,3.41,0,0,1,271.58,286.4Z"/></clipPath><clipPath id="clip-path-16" transform="translate(-120.12 -154.49)"><path class="cls-1" d="M285.91,263.56l-22.79-12.4a52.8,52.8,0,0,0,.54-8.81l22.8,12.4A52.79,52.79,0,0,1,285.91,263.56Z"/></clipPath><clipPath id="clip-path-17" transform="translate(-120.12 -154.49)"><path class="cls-1" d="M258.26,225.18l22.79,12.4c1.55.84,2.86,3,3.9,6.63a39.19,39.19,0,0,1,1.51,10.54l-22.8-12.4a38.41,38.41,0,0,0-1.51-10.54C261.12,228.17,259.8,226,258.26,225.18Z"/></clipPath><clipPath id="clip-path-18" transform="translate(-120.12 -154.49)"><path class="cls-1" d="M265.31,206.65l22.8,12.4a15.66,15.66,0,0,0-5-1.69L260.35,205A15.74,15.74,0,0,1,265.31,206.65Z"/></clipPath><clipPath id="clip-path-19" transform="translate(-120.12 -154.49)"><path class="cls-1" d="M264.57,305.14l-22.79-12.4c-3.51-1.91-6.29-5.26-8.38-10.16-2.67-6.12-4-13.77-4-22.89a89.47,89.47,0,0,1,6.62-34.29c5.15-12.59,11.72-19.41,19.75-20.54a16.64,16.64,0,0,1,4.55.1l22.8,12.4a16.65,16.65,0,0,0-4.55-.1c-8,1.13-14.61,8-19.76,20.54a89.47,89.47,0,0,0-6.62,34.29c0,9.12,1.3,16.77,4,22.89C258.28,299.88,261.06,303.23,264.57,305.14Z"/></clipPath><clipPath id="clip-path-20" transform="translate(-120.12 -154.49)"><path class="cls-1" d="M233.42,324.65l-22.79-12.4a10,10,0,0,1-3.17-3Q195.75,294,189,261.43l22.79,12.4q6.76,32.64,18.47,47.86A10.15,10.15,0,0,0,233.42,324.65Z"/></clipPath><clipPath id="clip-path-21" transform="translate(-120.12 -154.49)"><path class="cls-1" d="M226.87,197.14l22.8,12.4a5,5,0,0,0-3.11-.58c-.2,0-.41.07-.61.12l-22.8-12.4.61-.12A5,5,0,0,1,226.87,197.14Z"/></clipPath><clipPath id="clip-path-22" transform="translate(-120.12 -154.49)"><path class="cls-1" d="M185.1,331.71l-22.8-12.4c-1.55-.85-2.83-3.17-4-7l22.79,12.4C182.26,328.53,183.55,330.86,185.1,331.71Z"/></clipPath><clipPath id="clip-path-23" transform="translate(-120.12 -154.49)"><path class="cls-1" d="M229.21,281.83l-22.79-12.4c2.22-30.4,6-52.57,11.17-66.74,1.27-3.46,3.13-5.44,5.56-6l22.8,12.4c-2.44.57-4.29,2.55-5.56,6C235.18,229.26,231.44,251.43,229.21,281.83Z"/></clipPath><clipPath id="clip-path-24" transform="translate(-120.12 -154.49)"><path class="cls-1" d="M194.69,221.34l22.79,12.4a3.92,3.92,0,0,0-2.49-.4c-.18,0-.36.06-.55.1-2.53.58-4.6,3.26-6.3,8L185.35,229c1.7-4.72,3.77-7.4,6.3-8,.19,0,.37-.08.55-.1A3.94,3.94,0,0,1,194.69,221.34Z"/></clipPath><clipPath id="clip-path-25" transform="translate(-120.12 -154.49)"><path class="cls-1" d="M181.08,324.72l-22.79-12.4q-6.37-22.4-13.69-87.95l22.8,12.4Q174.72,302.35,181.08,324.72Z"/></clipPath><clipPath id="clip-path-26" transform="translate(-120.12 -154.49)"><path class="cls-1" d="M155.29,212.08l22.79,12.4a5,5,0,0,0-3.15-.46c-.28,0-.56.1-.85.17a7.68,7.68,0,0,0-5.3,4.4,15.72,15.72,0,0,0-1.38,8.18l-22.8-12.4a15.62,15.62,0,0,1,1.39-8.18,7.66,7.66,0,0,1,5.29-4.4c.3-.07.58-.13.86-.17A5,5,0,0,1,155.29,212.08Z"/></clipPath></defs><title>Untitled-7</title><g class="cls-2"><g class="cls-2"><g class="cls-3"><g class="cls-2"><path class="cls-4" d="M341.84,322.68l-22.79-12.4.37-.06,22.79,12.4-.37.06" transform="translate(-120.12 -154.49)"/><path class="cls-5" d="M342.21,322.62l-22.79-12.4c.32-.05.63-.12.94-.19l22.8,12.4c-.32.07-.63.14-1,.19" transform="translate(-120.12 -154.49)"/><path class="cls-6" d="M343.16,322.43,320.36,310c.29-.07.57-.14.85-.23L344,322.2c-.29.09-.57.16-.85.23" transform="translate(-120.12 -154.49)"/><path class="cls-7" d="M344,322.2l-22.8-12.4a7.46,7.46,0,0,0,.8-.26l22.79,12.4c-.26.1-.53.18-.79.26" transform="translate(-120.12 -154.49)"/><path class="cls-8" d="M344.8,321.94,322,309.54c.25-.08.5-.18.75-.28l22.79,12.4c-.25.1-.5.2-.75.28" transform="translate(-120.12 -154.49)"/><path class="cls-9" d="M345.55,321.66l-22.79-12.4.71-.31,22.79,12.4-.71.31" transform="translate(-120.12 -154.49)"/><path class="cls-10" d="M346.26,321.35,323.47,309l.72-.36L347,321l-.72.36" transform="translate(-120.12 -154.49)"/><path class="cls-11" d="M347,321l-22.79-12.4.73-.4,22.79,12.39c-.24.15-.48.28-.73.41" transform="translate(-120.12 -154.49)"/><path class="cls-12" d="M347.71,320.58l-22.79-12.39c.28-.16.55-.33.82-.51l22.79,12.4c-.27.18-.54.34-.82.5" transform="translate(-120.12 -154.49)"/><path class="cls-13" d="M348.53,320.08l-22.79-12.4c.32-.21.63-.43.94-.65l22.8,12.39c-.32.23-.63.45-1,.66" transform="translate(-120.12 -154.49)"/><path class="cls-14" d="M349.48,319.42,326.68,307a23.15,23.15,0,0,0,3.24-2.91l22.79,12.4a23.57,23.57,0,0,1-3.23,2.9" transform="translate(-120.12 -154.49)"/><path class="cls-13" d="M352.71,316.52l-22.79-12.4c.32-.34.63-.7.94-1.07l22.79,12.4c-.3.37-.62.73-.94,1.07" transform="translate(-120.12 -154.49)"/><path class="cls-12" d="M353.65,315.45l-22.79-12.4c.21-.25.42-.51.62-.77l22.8,12.4-.63.77" transform="translate(-120.12 -154.49)"/><path class="cls-11" d="M354.28,314.68l-22.8-12.4c.21-.26.41-.52.6-.79l22.79,12.4c-.19.27-.39.53-.59.79" transform="translate(-120.12 -154.49)"/><path class="cls-10" d="M354.87,313.89l-22.79-12.4.51-.72,22.79,12.4c-.17.24-.33.48-.51.72" transform="translate(-120.12 -154.49)"/><path class="cls-9" d="M355.38,313.17l-22.79-12.4.49-.74,22.79,12.4-.49.74" transform="translate(-120.12 -154.49)"/><path class="cls-8" d="M355.87,312.43,333.08,300c.16-.25.32-.5.47-.76l22.79,12.4c-.15.26-.31.51-.47.76" transform="translate(-120.12 -154.49)"/><path class="cls-7" d="M356.34,311.67l-22.79-12.4c.16-.26.31-.51.46-.78l22.79,12.4c-.15.27-.3.52-.46.78" transform="translate(-120.12 -154.49)"/><path class="cls-6" d="M356.8,310.89,334,298.49l.45-.82,22.8,12.39c-.15.28-.3.56-.46.83" transform="translate(-120.12 -154.49)"/><path class="cls-5" d="M357.26,310.06l-22.8-12.39c.16-.29.31-.59.46-.88l22.79,12.39-.45.88" transform="translate(-120.12 -154.49)"/><path class="cls-4" d="M357.71,309.18l-22.79-12.39.45-1,22.8,12.4c-.15.32-.3.63-.46.94" transform="translate(-120.12 -154.49)"/><path class="cls-15" d="M358.17,308.24l-22.8-12.4c.16-.34.31-.69.46-1l22.8,12.4c-.15.35-.31.7-.46,1" transform="translate(-120.12 -154.49)"/><path class="cls-16" d="M358.63,307.2l-22.8-12.4c.16-.38.32-.76.47-1.15l22.79,12.4c-.15.39-.3.77-.46,1.15" transform="translate(-120.12 -154.49)"/><path class="cls-17" d="M359.09,306.05l-22.79-12.4c.16-.41.32-.83.47-1.26l22.79,12.4c-.15.42-.3.85-.47,1.26" transform="translate(-120.12 -154.49)"/><path class="cls-18" d="M359.56,304.79l-22.79-12.4c.17-.49.33-1,.49-1.5l22.79,12.4c-.15.5-.32,1-.49,1.5" transform="translate(-120.12 -154.49)"/><path class="cls-19" d="M360.05,303.29l-22.79-12.4q.25-.84.48-1.71l22.79,12.4q-.22.87-.48,1.71" transform="translate(-120.12 -154.49)"/><path class="cls-20" d="M360.53,301.58l-22.79-12.4c.17-.66.32-1.32.46-2l22.8,12.4c-.14.68-.3,1.34-.47,2" transform="translate(-120.12 -154.49)"/><path class="cls-21" d="M361,299.58l-22.8-12.4c.16-.78.3-1.58.42-2.38l22.8,12.4c-.12.8-.26,1.6-.42,2.38" transform="translate(-120.12 -154.49)"/><path class="cls-22" d="M361.42,297.2l-22.8-12.4c.14-.94.25-1.9.32-2.87l22.8,12.4c-.08,1-.19,1.93-.32,2.87" transform="translate(-120.12 -154.49)"/><path class="cls-23" d="M361.74,294.33l-22.8-12.4c.09-1,.13-2.1.13-3.17l22.79,12.4c0,1.06,0,2.12-.12,3.17" transform="translate(-120.12 -154.49)"/></g></g></g><polygon class="cls-24" points="241.74 136.67 218.95 124.27 219.13 27.01 241.92 39.41 241.74 136.67"/><polygon class="cls-25" points="165.68 206.01 142.88 193.61 134.42 164.85 157.21 177.25 165.68 206.01"/><polygon class="cls-26" points="157.21 177.25 134.42 164.85 198.93 155.79 221.72 168.19 157.21 177.25"/><g class="cls-2"><g class="cls-27"><g class="cls-2"><path class="cls-23" d="M362,193.9l-22.79-12.4v-.35L362,193.55v.35" transform="translate(-120.12 -154.49)"/><path class="cls-28" d="M362,193.55l-22.79-12.4a38.34,38.34,0,0,0-.28-4.48l22.8,12.4a40.69,40.69,0,0,1,.27,4.48" transform="translate(-120.12 -154.49)"/><path class="cls-24" d="M361.77,189.07,339,176.67c-1.09-9.17-5.33-16.38-11.09-19.51l22.79,12.4c5.76,3.13,10,10.34,11.1,19.51" transform="translate(-120.12 -154.49)"/></g></g></g><g class="cls-2"><g class="cls-29"><g class="cls-2"><path class="cls-30" d="M342.13,168l-22.8-12.4.65-.07,22.79,12.4-.64.07" transform="translate(-120.12 -154.49)"/><path class="cls-31" d="M342.77,167.92,320,155.52a9.37,9.37,0,0,1,1-.06l22.8,12.4a9.55,9.55,0,0,0-1.06.06" transform="translate(-120.12 -154.49)"/><path class="cls-32" d="M343.83,167.86,321,155.46c.38,0,.75,0,1.11,0l22.8,12.4c-.37,0-.74,0-1.11,0" transform="translate(-120.12 -154.49)"/><path class="cls-33" d="M344.94,167.88l-22.8-12.4c.38,0,.75.06,1.12.12L346.05,168a10.18,10.18,0,0,0-1.11-.12" transform="translate(-120.12 -154.49)"/><path class="cls-34" d="M346.05,168l-22.79-12.4c.38.05.76.13,1.13.21l22.79,12.4c-.37-.08-.75-.16-1.13-.21" transform="translate(-120.12 -154.49)"/><path class="cls-35" d="M347.18,168.21l-22.79-12.4c.39.1.77.2,1.14.33l22.8,12.4c-.38-.13-.76-.23-1.15-.33" transform="translate(-120.12 -154.49)"/><path class="cls-36" d="M348.33,168.54l-22.8-12.4a10.23,10.23,0,0,1,1.2.46L349.52,169c-.39-.17-.79-.32-1.19-.45" transform="translate(-120.12 -154.49)"/><path class="cls-37" d="M349.52,169,326.73,156.6a11.06,11.06,0,0,1,1.15.56l22.79,12.4c-.38-.21-.76-.4-1.15-.57" transform="translate(-120.12 -154.49)"/></g></g></g><g class="cls-2"><g class="cls-38"><g class="cls-2"><path class="cls-4" d="M342.13,167l-22.79-12.4.68-.08L342.81,167l-.68.08" transform="translate(-120.12 -154.49)"/><path class="cls-15" d="M342.81,167,320,154.55q.56,0,1.11-.06l22.79,12.4-1.11.06" transform="translate(-120.12 -154.49)"/><path class="cls-16" d="M343.92,166.89l-22.79-12.4a11.43,11.43,0,0,1,1.17,0l22.79,12.39c-.38,0-.77,0-1.17,0" transform="translate(-120.12 -154.49)"/><path class="cls-17" d="M345.09,166.91,322.3,154.52a11.5,11.5,0,0,1,1.18.12L346.27,167c-.39-.06-.78-.1-1.18-.13" transform="translate(-120.12 -154.49)"/><path class="cls-18" d="M346.27,167l-22.79-12.4a11.9,11.9,0,0,1,1.19.23l22.79,12.4a11.9,11.9,0,0,0-1.19-.23" transform="translate(-120.12 -154.49)"/><path class="cls-19" d="M347.46,167.27l-22.79-12.4c.4.09.8.21,1.2.34l22.79,12.4a11.81,11.81,0,0,0-1.2-.34" transform="translate(-120.12 -154.49)"/><path class="cls-20" d="M348.66,167.61l-22.79-12.4c.43.14.84.3,1.26.48l22.79,12.4q-.62-.27-1.26-.48" transform="translate(-120.12 -154.49)"/><path class="cls-21" d="M349.92,168.09l-22.79-12.4c.41.18.81.37,1.21.59l22.79,12.4a12.26,12.26,0,0,0-1.21-.59" transform="translate(-120.12 -154.49)"/></g></g></g><polygon class="cls-39" points="165.68 206.01 142.88 193.61 105.33 168.94 128.13 181.34 165.68 206.01"/><polygon class="cls-25" points="167.32 208.28 144.52 195.88 105.03 169.94 127.83 182.34 167.32 208.28"/><polygon class="cls-26" points="43.6 193.22 20.81 180.82 105.33 168.94 128.13 181.34 43.6 193.22"/><g class="cls-2"><g class="cls-40"><g class="cls-2"><path class="cls-21" d="M155.18,346.14l-22.8-12.39c.38.2.76.39,1.15.56l22.8,12.4a12.29,12.29,0,0,1-1.15-.57" transform="translate(-120.12 -154.49)"/><path class="cls-20" d="M156.33,346.71l-22.8-12.4c.4.17.79.32,1.2.45l22.79,12.4c-.4-.13-.8-.28-1.19-.45" transform="translate(-120.12 -154.49)"/><path class="cls-19" d="M157.52,347.16l-22.79-12.4a11.4,11.4,0,0,0,1.14.33l22.8,12.4a11.59,11.59,0,0,1-1.15-.33" transform="translate(-120.12 -154.49)"/><path class="cls-18" d="M158.67,347.49l-22.8-12.4a10.71,10.71,0,0,0,1.13.21l22.79,12.4a10.52,10.52,0,0,1-1.12-.21" transform="translate(-120.12 -154.49)"/><path class="cls-17" d="M159.79,347.7,137,335.3a10.36,10.36,0,0,0,1.12.12l22.79,12.4a10.64,10.64,0,0,1-1.12-.12" transform="translate(-120.12 -154.49)"/><path class="cls-16" d="M160.91,347.82l-22.79-12.4q.54,0,1.11,0L162,347.84c-.37,0-.74,0-1.11,0" transform="translate(-120.12 -154.49)"/><path class="cls-15" d="M162,347.84l-22.79-12.39q.53,0,1.05-.06l22.8,12.39a9.55,9.55,0,0,1-1.06.06" transform="translate(-120.12 -154.49)"/><path class="cls-4" d="M163.08,347.78l-22.8-12.39.65-.08,22.79,12.4-.64.07" transform="translate(-120.12 -154.49)"/></g></g></g><g class="cls-2"><g class="cls-41"><g class="cls-2"><path class="cls-42" d="M155.18,346.14l-22.8-12.39c-5.76-3.14-10-10.35-11.09-19.52l22.79,12.4c1.1,9.17,5.34,16.38,11.1,19.51" transform="translate(-120.12 -154.49)"/></g></g></g><g class="cls-2"><g class="cls-43"><g class="cls-2"><path class="cls-42" d="M155.18,346.14l-22.8-12.39c-5.76-3.14-10-10.35-11.09-19.52l22.79,12.4c1.1,9.17,5.34,16.38,11.1,19.51" transform="translate(-120.12 -154.49)"/></g></g></g><g class="cls-2"><g class="cls-44"><g class="cls-2"><path class="cls-42" d="M155.18,346.14l-22.8-12.39c-5.76-3.14-10-10.35-11.09-19.52l22.79,12.4c1.1,9.17,5.34,16.38,11.1,19.51" transform="translate(-120.12 -154.49)"/><path class="cls-45" d="M144.08,326.63l-22.79-12.4a40.5,40.5,0,0,1-.28-4.48l22.79,12.4a40.5,40.5,0,0,0,.28,4.48" transform="translate(-120.12 -154.49)"/><path class="cls-46" d="M143.8,322.15,121,309.75v-.35l22.79,12.4v.35" transform="translate(-120.12 -154.49)"/></g></g></g><g class="cls-2"><g class="cls-47"><g class="cls-2"><path class="cls-24" d="M154.72,347l-22.8-12.4c-6-3.25-10.39-10.7-11.51-20.16l22.79,12.4c1.13,9.46,5.53,16.91,11.52,20.16" transform="translate(-120.12 -154.49)"/><path class="cls-28" d="M143.2,326.86l-22.79-12.4a40.06,40.06,0,0,1-.29-4.58l22.8,12.4a40.09,40.09,0,0,0,.28,4.58" transform="translate(-120.12 -154.49)"/><path class="cls-23" d="M142.92,322.28l-22.8-12.4v-.35l22.79,12.4c0,.12,0,.23,0,.35" transform="translate(-120.12 -154.49)"/></g></g></g><polygon class="cls-48" points="43.83 38.55 21.04 26.15 199.21 1.11 222.01 13.51 43.83 38.55"/><polygon class="cls-26" points="43.83 37.59 21.04 25.19 199.22 0.15 222.01 12.54 43.83 37.59"/><polygon class="cls-49" points="23.68 167.31 0.89 154.92 1.07 57.66 23.86 70.06 23.68 167.31"/><polygon class="cls-24" points="22.79 167.44 0 155.04 0.18 57.78 22.97 70.18 22.79 167.44"/><g class="cls-2"><g class="cls-50"><g class="cls-2"><path class="cls-46" d="M144,224.55l-22.79-12.4c0-1.08,0-2.17.13-3.24l22.79,12.4c-.09,1.07-.13,2.15-.13,3.24" transform="translate(-120.12 -154.49)"/><path class="cls-51" d="M144.11,221.31l-22.79-12.4c.07-.95.18-1.9.31-2.84l22.8,12.4c-.14.94-.25,1.89-.32,2.84" transform="translate(-120.12 -154.49)"/><path class="cls-37" d="M144.43,218.47l-22.8-12.4c.12-.8.26-1.59.43-2.38l22.79,12.4c-.16.79-.3,1.58-.42,2.38" transform="translate(-120.12 -154.49)"/><path class="cls-36" d="M144.85,216.09l-22.79-12.4c.14-.68.29-1.35.47-2l22.79,12.4c-.17.66-.33,1.34-.47,2" transform="translate(-120.12 -154.49)"/><path class="cls-35" d="M145.32,214.07l-22.79-12.4c.15-.58.31-1.15.48-1.72l22.8,12.4c-.18.57-.34,1.14-.49,1.72" transform="translate(-120.12 -154.49)"/><path class="cls-34" d="M145.81,212.35,123,200c.15-.49.32-1,.49-1.48l22.79,12.4c-.17.49-.33,1-.48,1.48" transform="translate(-120.12 -154.49)"/><path class="cls-33" d="M146.29,210.87l-22.79-12.4c.15-.43.31-.87.48-1.3l22.79,12.4c-.17.43-.33.87-.48,1.3" transform="translate(-120.12 -154.49)"/><path class="cls-32" d="M146.77,209.57,124,197.17c.15-.38.3-.77.47-1.15l22.79,12.4c-.16.38-.32.77-.47,1.15" transform="translate(-120.12 -154.49)"/><path class="cls-31" d="M147.24,208.42,124.45,196c.15-.35.3-.69.46-1l22.79,12.4c-.16.35-.31.69-.46,1" transform="translate(-120.12 -154.49)"/><path class="cls-30" d="M147.7,207.38,124.91,195l.45-.94,22.8,12.4c-.16.31-.31.63-.46.94" transform="translate(-120.12 -154.49)"/><path class="cls-52" d="M148.16,206.44,125.36,194c.15-.3.3-.59.46-.88l22.79,12.4c-.15.29-.31.58-.45.88" transform="translate(-120.12 -154.49)"/><path class="cls-53" d="M148.61,205.56l-22.79-12.4c.14-.27.29-.54.44-.81l22.8,12.4c-.16.27-.3.54-.45.81" transform="translate(-120.12 -154.49)"/><path class="cls-54" d="M149.06,204.75l-22.8-12.4c.15-.26.3-.52.46-.77L149.51,204c-.15.25-.31.51-.45.77" transform="translate(-120.12 -154.49)"/><path class="cls-55" d="M149.51,204l-22.79-12.4c.15-.25.3-.5.46-.75l22.8,12.4c-.16.25-.32.49-.47.75" transform="translate(-120.12 -154.49)"/><path class="cls-56" d="M150,203.23l-22.8-12.4.48-.73,22.8,12.4c-.17.24-.33.48-.48.73" transform="translate(-120.12 -154.49)"/><path class="cls-57" d="M150.46,202.5l-22.8-12.4c.17-.24.34-.49.52-.73L151,201.77l-.51.73" transform="translate(-120.12 -154.49)"/><path class="cls-58" d="M151,201.77l-22.79-12.4c.19-.25.37-.5.57-.75L151.54,201c-.19.24-.38.5-.57.75" transform="translate(-120.12 -154.49)"/><path class="cls-59" d="M151.54,201l-22.79-12.4c.14-.19.28-.37.43-.55l.21-.25,22.8,12.4-.22.25c-.14.18-.29.36-.43.55" transform="translate(-120.12 -154.49)"/><path class="cls-60" d="M152.19,200.22l-22.8-12.4c.29-.34.57-.67.86-1L153,199.24c-.29.31-.57.64-.85,1" transform="translate(-120.12 -154.49)"/><path class="cls-61" d="M153,199.24l-22.79-12.4a22.63,22.63,0,0,1,3.34-3l22.79,12.4a23.15,23.15,0,0,0-3.34,3" transform="translate(-120.12 -154.49)"/><path class="cls-60" d="M156.38,196.24l-22.79-12.4c.31-.23.62-.45.94-.65l22.79,12.4c-.31.2-.63.42-.94.65" transform="translate(-120.12 -154.49)"/><path class="cls-59" d="M157.32,195.59l-22.79-12.4.78-.48,22.8,12.39-.79.49" transform="translate(-120.12 -154.49)"/><path class="cls-58" d="M158.11,195.1l-22.8-12.39.72-.4,22.79,12.4c-.24.12-.48.26-.71.39" transform="translate(-120.12 -154.49)"/><path class="cls-57" d="M158.82,194.71,136,182.31c.23-.12.46-.24.69-.34l22.8,12.4c-.23.1-.47.22-.7.34" transform="translate(-120.12 -154.49)"/><path class="cls-56" d="M159.52,194.37,136.72,182c.24-.11.47-.22.71-.31l22.79,12.4c-.23.09-.47.2-.7.31" transform="translate(-120.12 -154.49)"/><path class="cls-55" d="M160.22,194.06l-22.79-12.4.74-.29,22.8,12.4c-.25.09-.5.18-.75.29" transform="translate(-120.12 -154.49)"/><path class="cls-54" d="M161,193.77l-22.8-12.4.79-.26,22.79,12.4-.78.26" transform="translate(-120.12 -154.49)"/><path class="cls-53" d="M161.75,193.51,139,181.11c.29-.08.57-.16.86-.22l22.79,12.4c-.29.06-.57.14-.86.22" transform="translate(-120.12 -154.49)"/><path class="cls-52" d="M162.61,193.29l-22.79-12.4c.31-.08.63-.14,1-.2l22.79,12.4c-.32.06-.63.12-.95.2" transform="translate(-120.12 -154.49)"/><path class="cls-30" d="M163.56,193.09l-22.79-12.4.39-.06L164,193l-.39.06" transform="translate(-120.12 -154.49)"/></g></g></g><path class="cls-62" d="M342.13,168c11-1.55,19.94,10.08,19.91,25.91l-.18,97.26c0,15.83-9,30-20,31.52l-64.51,9.06,8.47,28.75-37.55-24.66-84.53,11.88c-11,1.55-19.95-10.08-19.92-25.91l.18-97.25c0-9,3-17.94,8-24.08,3.49-4.25,7.63-6.83,12-7.44Z" transform="translate(-120.12 -154.49)"/><path class="cls-63" d="M342.13,167c11.5-1.61,20.83,10.39,20.8,26.74L362.75,291c0,16.36-9.41,31-20.91,32.61l-63.31,8.89,8.91,30.24L248,336.83l-84.23,11.84c-11.5,1.62-20.84-10.38-20.81-26.74l.19-97.26c0-9.32,3-18.36,8.24-24.78,3.65-4.47,8-7.17,12.61-7.82Zm19.73,124.13L362,193.9c0-15.83-8.9-27.46-19.91-25.91L164,193c-4.35.61-8.49,3.19-12,7.44-5,6.14-8,15.13-8,24.08l-.18,97.25c0,15.83,8.91,27.46,19.92,25.91l84.53-11.88,37.55,24.66-8.47-28.75,64.51-9.06c11-1.55,20-15.69,20-31.52" transform="translate(-120.12 -154.49)"/><g class="cls-2"><g class="cls-64"><g class="cls-2"><path class="cls-23" d="M143.1,224.67l-22.8-12.4c0-1.15,0-2.3.13-3.44l22.8,12.4c-.09,1.14-.14,2.29-.13,3.44" transform="translate(-120.12 -154.49)"/><path class="cls-22" d="M143.23,221.23l-22.8-12.4q.12-1.49.33-2.94l22.8,12.4q-.23,1.46-.33,2.94" transform="translate(-120.12 -154.49)"/><path class="cls-21" d="M143.56,218.29l-22.8-12.4c.12-.81.27-1.62.43-2.42l22.8,12.4c-.17.8-.31,1.61-.43,2.42" transform="translate(-120.12 -154.49)"/><path class="cls-20" d="M144,215.87l-22.8-12.4c.15-.69.3-1.37.48-2l22.79,12.39c-.17.68-.33,1.36-.47,2.05" transform="translate(-120.12 -154.49)"/><path class="cls-19" d="M144.46,213.82l-22.79-12.39c.15-.58.31-1.15.48-1.72l22.8,12.4c-.18.57-.34,1.14-.49,1.71" transform="translate(-120.12 -154.49)"/><path class="cls-18" d="M145,212.11l-22.8-12.4c.16-.5.32-1,.49-1.48l22.79,12.4c-.17.49-.33,1-.48,1.48" transform="translate(-120.12 -154.49)"/><path class="cls-17" d="M145.43,210.63l-22.79-12.4c.15-.44.31-.87.48-1.3l22.79,12.4-.48,1.3" transform="translate(-120.12 -154.49)"/><path class="cls-16" d="M145.91,209.33l-22.79-12.4c.15-.39.31-.78.47-1.16l22.79,12.4c-.16.38-.32.77-.47,1.16" transform="translate(-120.12 -154.49)"/><path class="cls-15" d="M146.38,208.17l-22.79-12.4c.15-.35.31-.7.47-1.05l22.79,12.4-.47,1" transform="translate(-120.12 -154.49)"/><path class="cls-4" d="M146.85,207.12l-22.79-12.4c.15-.32.3-.65.46-1l22.79,12.4-.46,1" transform="translate(-120.12 -154.49)"/><path class="cls-5" d="M147.31,206.16l-22.79-12.4.46-.9,22.8,12.4-.47.9" transform="translate(-120.12 -154.49)"/><path class="cls-6" d="M147.78,205.26,125,192.86c.15-.28.31-.56.47-.84l22.79,12.4c-.16.28-.31.56-.46.84" transform="translate(-120.12 -154.49)"/><path class="cls-7" d="M148.24,204.42,125.45,192c.15-.27.31-.53.47-.8l22.79,12.4c-.16.27-.32.53-.47.8" transform="translate(-120.12 -154.49)"/><path class="cls-8" d="M148.71,203.62l-22.79-12.4c.15-.26.32-.52.48-.77l22.79,12.4-.48.77" transform="translate(-120.12 -154.49)"/><path class="cls-9" d="M149.19,202.85l-22.79-12.4c.17-.26.33-.52.51-.77l22.79,12.4-.51.77" transform="translate(-120.12 -154.49)"/><path class="cls-10" d="M149.7,202.08l-22.79-12.4.55-.78,22.79,12.4-.55.78" transform="translate(-120.12 -154.49)"/><path class="cls-11" d="M150.25,201.3l-22.79-12.4.61-.81,22.79,12.4-.61.81" transform="translate(-120.12 -154.49)"/><path class="cls-12" d="M150.86,200.49l-22.79-12.4.48-.6.22-.27,22.79,12.4-.22.27-.48.6" transform="translate(-120.12 -154.49)"/><path class="cls-13" d="M151.56,199.62l-22.79-12.4q.43-.53.9-1l22.79,12.4-.9,1" transform="translate(-120.12 -154.49)"/><path class="cls-14" d="M152.46,198.6l-22.79-12.4a24.69,24.69,0,0,1,3.48-3.14l22.8,12.4a24.21,24.21,0,0,0-3.49,3.14" transform="translate(-120.12 -154.49)"/><path class="cls-13" d="M156,195.46l-22.8-12.4c.33-.24.66-.47,1-.69l22.79,12.4c-.33.22-.67.45-1,.69" transform="translate(-120.12 -154.49)"/><path class="cls-12" d="M156.94,194.77l-22.79-12.4c.27-.18.55-.35.83-.51l22.79,12.4c-.28.16-.55.33-.83.51" transform="translate(-120.12 -154.49)"/><path class="cls-11" d="M157.77,194.26,135,181.86l.75-.41,22.8,12.4c-.26.13-.51.27-.76.41" transform="translate(-120.12 -154.49)"/><path class="cls-10" d="M158.53,193.85l-22.8-12.4.74-.37,22.79,12.4-.73.37" transform="translate(-120.12 -154.49)"/><path class="cls-9" d="M159.26,193.48l-22.79-12.4.74-.32L160,193.16l-.74.32" transform="translate(-120.12 -154.49)"/><path class="cls-8" d="M160,193.16l-22.79-12.4c.26-.11.52-.21.79-.3l22.79,12.4c-.26.09-.53.19-.79.3" transform="translate(-120.12 -154.49)"/><path class="cls-7" d="M160.79,192.86,138,180.46l.83-.28,22.79,12.4-.83.28" transform="translate(-120.12 -154.49)"/><path class="cls-6" d="M161.62,192.58l-22.79-12.4c.3-.09.61-.17.91-.24l22.79,12.4-.91.24" transform="translate(-120.12 -154.49)"/><path class="cls-5" d="M162.53,192.34l-22.79-12.4c.33-.08.67-.14,1-.2l22.8,12.4c-.34.05-.67.12-1,.2" transform="translate(-120.12 -154.49)"/><path class="cls-4" d="M163.54,192.14l-22.8-12.4.42-.07L164,192.07l-.41.07" transform="translate(-120.12 -154.49)"/></g></g></g></g><g class="cls-2"><g class="cls-2"><g class="cls-65"><g class="cls-2"><path class="cls-21" d="M324.19,279l-22.79-12.4.28.13,22.79,12.4-.28-.13" transform="translate(-120.12 -154.49)"/><path class="cls-20" d="M324.47,279.14l-22.79-12.4.28.11,22.79,12.4-.28-.11" transform="translate(-120.12 -154.49)"/><path class="cls-19" d="M324.75,279.25,302,266.85l.27.08,22.8,12.4-.28-.08" transform="translate(-120.12 -154.49)"/><path class="cls-18" d="M325,279.33l-22.8-12.4.24.05h0l22.79,12.4h0l-.24,0" transform="translate(-120.12 -154.49)"/><path class="cls-17" d="M325.28,279.38,302.49,267l.26,0,22.79,12.4-.26,0" transform="translate(-120.12 -154.49)"/><path class="cls-16" d="M325.54,279.4,302.75,267H303l22.79,12.4h-.28" transform="translate(-120.12 -154.49)"/><path class="cls-15" d="M325.82,279.41,303,267l.28,0,22.79,12.4-.28,0" transform="translate(-120.12 -154.49)"/><path class="cls-4" d="M326.1,279.39,303.31,267l.16,0h.1l22.79,12.4h-.1l-.16,0" transform="translate(-120.12 -154.49)"/><path class="cls-5" d="M326.36,279.36,303.57,267l.25,0,22.8,12.4-.26.05" transform="translate(-120.12 -154.49)"/><path class="cls-6" d="M326.62,279.31l-22.8-12.4.24-.07,22.79,12.4-.23.07" transform="translate(-120.12 -154.49)"/><path class="cls-7" d="M326.85,279.24l-22.79-12.4.23-.07,22.79,12.4-.23.07" transform="translate(-120.12 -154.49)"/><path class="cls-8" d="M327.08,279.17l-22.79-12.4.22-.09,22.8,12.4-.23.09" transform="translate(-120.12 -154.49)"/><path class="cls-9" d="M327.31,279.08l-22.8-12.4.23-.09L327.53,279l-.22.1" transform="translate(-120.12 -154.49)"/><path class="cls-10" d="M327.53,279l-22.79-12.39.23-.12,22.79,12.4-.23.11" transform="translate(-120.12 -154.49)"/><path class="cls-11" d="M327.76,278.87,305,266.47l.25-.14L328,278.73l-.25.14" transform="translate(-120.12 -154.49)"/><path class="cls-12" d="M328,278.73l-22.79-12.4.29-.18,22.79,12.4a2.29,2.29,0,0,1-.29.18" transform="translate(-120.12 -154.49)"/><path class="cls-13" d="M328.3,278.55l-22.79-12.4.39-.26,22.79,12.39a4.56,4.56,0,0,1-.39.27" transform="translate(-120.12 -154.49)"/><path class="cls-14" d="M328.69,278.28,305.9,265.89a13.26,13.26,0,0,0,1.66-1.52l22.79,12.4a11.82,11.82,0,0,1-1.66,1.51" transform="translate(-120.12 -154.49)"/><path class="cls-13" d="M330.35,276.77l-22.79-12.4.59-.67,22.79,12.39c-.2.24-.39.47-.59.68" transform="translate(-120.12 -154.49)"/><path class="cls-12" d="M330.94,276.09,308.15,263.7l.51-.64,22.8,12.4-.52.63" transform="translate(-120.12 -154.49)"/><path class="cls-11" d="M331.46,275.46l-22.8-12.4c.17-.22.34-.44.51-.68L332,274.78l-.5.68" transform="translate(-120.12 -154.49)"/><path class="cls-10" d="M332,274.78l-22.79-12.4.13-.18c.1-.13.19-.27.29-.42l22.79,12.4a4.43,4.43,0,0,1-.29.42l-.13.18" transform="translate(-120.12 -154.49)"/><path class="cls-9" d="M332.38,274.18l-22.79-12.4.39-.58,22.79,12.4-.39.58" transform="translate(-120.12 -154.49)"/><path class="cls-8" d="M332.77,273.6,310,261.2l.38-.61L333.15,273l-.38.61" transform="translate(-120.12 -154.49)"/><path class="cls-7" d="M333.15,273l-22.79-12.4c.13-.21.25-.42.37-.64l22.8,12.4-.38.64" transform="translate(-120.12 -154.49)"/><path class="cls-6" d="M333.53,272.35,310.73,260c.13-.23.26-.45.38-.69l22.8,12.4-.38.69" transform="translate(-120.12 -154.49)"/><path class="cls-5" d="M333.91,271.66l-22.8-12.4.39-.74,22.79,12.4c-.13.25-.25.5-.38.74" transform="translate(-120.12 -154.49)"/><path class="cls-4" d="M334.29,270.92l-22.79-12.4c.13-.27.27-.55.4-.83l22.79,12.4c-.13.28-.26.56-.4.83" transform="translate(-120.12 -154.49)"/><path class="cls-15" d="M334.69,270.09l-22.79-12.4.42-.95,22.79,12.4c-.13.32-.28.64-.42.95" transform="translate(-120.12 -154.49)"/><path class="cls-16" d="M335.11,269.14l-22.79-12.4.45-1.1L335.56,268c-.14.37-.29.74-.45,1.1" transform="translate(-120.12 -154.49)"/><path class="cls-17" d="M335.56,268l-22.79-12.4c.16-.42.32-.86.48-1.3L336,266.74c-.15.44-.31.88-.48,1.3" transform="translate(-120.12 -154.49)"/><path class="cls-18" d="M336,266.74l-22.79-12.4c.18-.53.36-1.07.53-1.62l22.79,12.4c-.17.55-.35,1.09-.53,1.62" transform="translate(-120.12 -154.49)"/><path class="cls-19" d="M336.57,265.12l-22.79-12.4c.2-.67.4-1.36.58-2.07l22.8,12.4c-.19.71-.38,1.4-.59,2.07" transform="translate(-120.12 -154.49)"/><path class="cls-20" d="M337.16,263.05l-22.8-12.4c.24-.9.45-1.83.65-2.8l22.8,12.4c-.2,1-.42,1.9-.65,2.8" transform="translate(-120.12 -154.49)"/><path class="cls-21" d="M337.81,260.25,315,247.85c.27-1.28.5-2.62.71-4l22.79,12.4c-.2,1.4-.44,2.75-.7,4" transform="translate(-120.12 -154.49)"/><path class="cls-22" d="M338.51,256.22l-22.79-12.4v-.06l22.79,12.4v.06" transform="translate(-120.12 -154.49)"/></g></g></g><g class="cls-2"><g class="cls-66"><g class="cls-2"><path class="cls-22" d="M338.52,256.16l-22.79-12.4q.21-1.78.36-3.66l22.79,12.4c-.09,1.25-.22,2.47-.36,3.66" transform="translate(-120.12 -154.49)"/><path class="cls-23" d="M338.88,252.5l-22.79-12.4c.13-1.67.21-3.39.19-5.14a2.44,2.44,0,0,0,0-.27l22.8,12.4v.27c0,1.75-.06,3.47-.19,5.14" transform="translate(-120.12 -154.49)"/><path class="cls-28" d="M339.07,247.09l-22.8-12.4a34.46,34.46,0,0,0-.25-4l22.79,12.4a36.82,36.82,0,0,1,.26,4" transform="translate(-120.12 -154.49)"/><path class="cls-24" d="M338.81,243.06,316,230.66a40.59,40.59,0,0,0-1.26-6.24c-1-3.64-2.35-5.79-3.89-6.63l22.79,12.4c1.55.84,2.86,3,3.89,6.63a39.21,39.21,0,0,1,1.26,6.24" transform="translate(-120.12 -154.49)"/></g></g></g><g class="cls-2"><g class="cls-67"><g class="cls-2"><path class="cls-24" d="M317.13,297.76l-22.79-12.4c-3.51-1.91-6.29-5.27-8.38-10.17a47.64,47.64,0,0,1-3.46-13.48l22.8,12.39a47.63,47.63,0,0,0,3.45,13.49c2.09,4.9,4.87,8.26,8.38,10.17" transform="translate(-120.12 -154.49)"/><path class="cls-28" d="M305.3,274.1l-22.8-12.39A79,79,0,0,1,282,253l22.8,12.4a74.08,74.08,0,0,0,.51,8.67" transform="translate(-120.12 -154.49)"/><path class="cls-23" d="M304.79,265.43,282,253v-.72c0-2.54.11-5.06.3-7.53l22.79,12.4q-.29,3.7-.3,7.53c0,.24,0,.48,0,.72" transform="translate(-120.12 -154.49)"/><path class="cls-22" d="M305.08,257.18l-22.79-12.4c.17-2.13.4-4.24.71-6.33l22.79,12.4c-.3,2.09-.54,4.19-.71,6.33" transform="translate(-120.12 -154.49)"/><path class="cls-21" d="M305.79,250.85,283,238.45q.38-2.55.9-5.07l22.79,12.4q-.51,2.52-.9,5.07" transform="translate(-120.12 -154.49)"/><path class="cls-20" d="M306.69,245.78l-22.79-12.4c.29-1.42.62-2.82,1-4.22l22.8,12.4c-.37,1.4-.69,2.8-1,4.22" transform="translate(-120.12 -154.49)"/><path class="cls-19" d="M307.68,241.56l-22.8-12.4c.32-1.21.66-2.41,1-3.61L308.7,238c-.37,1.2-.71,2.4-1,3.61" transform="translate(-120.12 -154.49)"/><path class="cls-18" d="M308.7,238l-22.8-12.4c.33-1.06.67-2.11,1-3.15l22.79,12.4c-.36,1-.71,2.09-1,3.15" transform="translate(-120.12 -154.49)"/><path class="cls-17" d="M309.73,234.8l-22.79-12.4c.33-1,.68-1.89,1-2.83l22.8,12.4c-.37.93-.72,1.88-1,2.83" transform="translate(-120.12 -154.49)"/><path class="cls-16" d="M310.78,232,288,219.57c.21-.52.41-1,.63-1.56.13-.33.27-.66.41-1l22.79,12.39-.41,1c-.21.52-.42,1-.62,1.56" transform="translate(-120.12 -154.49)"/><path class="cls-15" d="M311.81,229.42,289,217c.29-.7.6-1.38.9-2l22.79,12.4c-.3.66-.6,1.34-.9,2" transform="translate(-120.12 -154.49)"/><path class="cls-4" d="M312.71,227.39,289.92,215c.26-.56.52-1.1.79-1.64l22.79,12.4c-.27.53-.53,1.08-.79,1.64" transform="translate(-120.12 -154.49)"/><path class="cls-5" d="M313.5,225.75l-22.79-12.4c.24-.48.48-.94.72-1.4l22.79,12.4c-.24.46-.48.92-.72,1.4" transform="translate(-120.12 -154.49)"/><path class="cls-6" d="M314.22,224.35,291.43,212l.68-1.24,22.8,12.4-.69,1.24" transform="translate(-120.12 -154.49)"/><path class="cls-7" d="M314.91,223.11l-22.8-12.4c.22-.37.43-.74.65-1.1L315.55,222l-.64,1.1" transform="translate(-120.12 -154.49)"/><path class="cls-8" d="M315.55,222l-22.79-12.4c.21-.35.42-.68.63-1L316.18,221c-.21.33-.42.66-.63,1" transform="translate(-120.12 -154.49)"/><path class="cls-9" d="M316.18,221l-22.79-12.4c.21-.32.41-.64.63-.95l22.79,12.4-.63.95" transform="translate(-120.12 -154.49)"/><path class="cls-10" d="M316.81,220.05,294,207.65l.63-.9,22.79,12.4-.63.9" transform="translate(-120.12 -154.49)"/><path class="cls-11" d="M317.44,219.15l-22.79-12.4.67-.89,22.8,12.4c-.23.29-.45.59-.68.89" transform="translate(-120.12 -154.49)"/><path class="cls-12" d="M318.12,218.26l-22.8-12.4c.25-.33.51-.64.76-.94l22.8,12.4c-.26.3-.51.61-.76.94" transform="translate(-120.12 -154.49)"/><path class="cls-13" d="M318.88,217.32l-22.8-12.4c.32-.38.64-.75,1-1.1l22.79,12.4c-.32.35-.65.71-1,1.1" transform="translate(-120.12 -154.49)"/><path class="cls-14" d="M319.84,216.22l-22.79-12.4a23,23,0,0,1,3.37-3l22.79,12.4a24.08,24.08,0,0,0-3.37,3" transform="translate(-120.12 -154.49)"/><path class="cls-13" d="M323.21,213.19l-22.79-12.4c.31-.23.62-.45.94-.66l22.8,12.4c-.32.21-.64.43-1,.66" transform="translate(-120.12 -154.49)"/><path class="cls-12" d="M324.16,212.53l-22.8-12.4.78-.48,22.8,12.4q-.39.22-.78.48" transform="translate(-120.12 -154.49)"/><path class="cls-11" d="M324.94,212.05l-22.8-12.4.74-.41,22.79,12.4-.73.41" transform="translate(-120.12 -154.49)"/><path class="cls-10" d="M325.67,211.64l-22.79-12.4.72-.35,22.79,12.4-.72.35" transform="translate(-120.12 -154.49)"/><path class="cls-9" d="M326.39,211.29l-22.79-12.4.73-.32L327.12,211l-.73.32" transform="translate(-120.12 -154.49)"/><path class="cls-8" d="M327.12,211l-22.79-12.4c.25-.11.51-.2.76-.29l22.8,12.39c-.26.1-.52.19-.77.3" transform="translate(-120.12 -154.49)"/><path class="cls-7" d="M327.89,210.67l-22.8-12.39.84-.28,22.79,12.4-.83.27" transform="translate(-120.12 -154.49)"/><path class="cls-6" d="M328.72,210.4,305.93,198l.94-.25,22.79,12.4-.94.25" transform="translate(-120.12 -154.49)"/><path class="cls-5" d="M329.66,210.15l-22.79-12.4c.35-.08.7-.15,1.06-.21l22.79,12.4c-.36.06-.71.13-1.06.21" transform="translate(-120.12 -154.49)"/><path class="cls-4" d="M330.72,209.94l-22.79-12.4.43-.07.49-.05,22.79,12.4-.49.05-.43.07" transform="translate(-120.12 -154.49)"/><path class="cls-15" d="M331.64,209.82l-22.79-12.4c.32,0,.65,0,1-.06l22.8,12.4c-.34,0-.66,0-1,.06" transform="translate(-120.12 -154.49)"/><path class="cls-16" d="M332.63,209.76l-22.8-12.4c.43,0,.87,0,1.31,0l22.79,12.4c-.44,0-.88,0-1.3,0" transform="translate(-120.12 -154.49)"/><path class="cls-17" d="M333.93,209.79l-22.79-12.4c.58,0,1.17.1,1.77.19h0L335.75,210h-.05c-.6-.09-1.19-.15-1.77-.19" transform="translate(-120.12 -154.49)"/><path class="cls-18" d="M335.75,210,313,197.59c.4.06.79.14,1.17.23l22.79,12.4c-.38-.09-.77-.17-1.17-.23" transform="translate(-120.12 -154.49)"/><path class="cls-19" d="M336.92,210.22l-22.79-12.4c.46.11.9.23,1.34.38l22.79,12.4a13.86,13.86,0,0,0-1.34-.38" transform="translate(-120.12 -154.49)"/><path class="cls-20" d="M338.26,210.6l-22.79-12.4c.44.14.86.3,1.28.48l22.79,12.4a13,13,0,0,0-1.28-.48" transform="translate(-120.12 -154.49)"/><path class="cls-21" d="M339.54,211.08l-22.79-12.4c.4.18.8.37,1.18.58l22.79,12.4c-.38-.21-.77-.4-1.18-.58" transform="translate(-120.12 -154.49)"/></g></g></g><path class="cls-63" d="M349.1,221.83c2.69,6,4,13.54,4,22.73A90.5,90.5,0,0,1,346.46,279c-5,12.57-11.61,19.4-19.76,20.54a16.21,16.21,0,0,1-4.54-.11c-6-.95-10.41-4.8-13.41-11.85-2.68-6.11-4-13.77-4-22.88a89.67,89.67,0,0,1,6.62-34.3c5.15-12.59,11.72-19.41,19.75-20.54a16.27,16.27,0,0,1,4.55.11C341.67,210.93,346.1,214.79,349.1,221.83Zm-10.58,34.33a69.29,69.29,0,0,0,.55-8.8,38.7,38.7,0,0,0-1.52-10.54c-1.26-4.45-2.94-6.68-4.95-7a4.58,4.58,0,0,0-1.17,0c-2.61.37-5.17,3.14-7.57,8.55a52.66,52.66,0,0,0-4.47,14.73,58.37,58.37,0,0,0-.59,8.75,38.39,38.39,0,0,0,1.51,10.53c1.26,4.45,2.95,6.68,5,7a3.29,3.29,0,0,0,1,0c1.83-.25,3.77-1.88,5.83-4.77,3.13-4.39,5.26-10.43,6.43-18.44" transform="translate(-120.12 -154.49)"/></g><g class="cls-2"><g class="cls-2"><g class="cls-68"><g class="cls-2"><path class="cls-21" d="M271.58,286.4,248.79,274a2.44,2.44,0,0,0,.28.14l22.79,12.4-.28-.14" transform="translate(-120.12 -154.49)"/><path class="cls-20" d="M271.86,286.54l-22.79-12.4.28.11,22.79,12.39-.28-.1" transform="translate(-120.12 -154.49)"/><path class="cls-19" d="M272.14,286.64l-22.79-12.39.27.07,22.79,12.4-.27-.08" transform="translate(-120.12 -154.49)"/><path class="cls-18" d="M272.41,286.72l-22.79-12.4.24.05h0l22.79,12.4h0l-.24,0" transform="translate(-120.12 -154.49)"/><path class="cls-17" d="M272.67,286.77l-22.79-12.4.25,0,22.8,12.4-.26,0" transform="translate(-120.12 -154.49)"/><path class="cls-16" d="M272.93,286.8l-22.8-12.4a2.81,2.81,0,0,0,.29,0l22.79,12.4h-.28" transform="translate(-120.12 -154.49)"/><path class="cls-15" d="M273.21,286.8l-22.79-12.4h.27l22.8,12.4h-.28" transform="translate(-120.12 -154.49)"/><path class="cls-4" d="M273.49,286.79l-22.8-12.4.17,0,.1,0,22.79,12.4-.1,0-.16,0" transform="translate(-120.12 -154.49)"/><path class="cls-5" d="M273.75,286.75,251,274.35l.25-.05L274,286.7l-.25.05" transform="translate(-120.12 -154.49)"/><path class="cls-6" d="M274,286.7l-22.79-12.4.24-.06,22.8,12.4-.25.06" transform="translate(-120.12 -154.49)"/><path class="cls-7" d="M274.25,286.64l-22.8-12.4.23-.08,22.8,12.4-.23.08" transform="translate(-120.12 -154.49)"/><path class="cls-8" d="M274.48,286.56l-22.8-12.4.22-.08,22.8,12.4-.22.08" transform="translate(-120.12 -154.49)"/><path class="cls-9" d="M274.7,286.48l-22.8-12.4.23-.1,22.79,12.4-.22.1" transform="translate(-120.12 -154.49)"/><path class="cls-10" d="M274.92,286.38,252.13,274l.23-.12,22.79,12.4-.23.12" transform="translate(-120.12 -154.49)"/><path class="cls-11" d="M275.15,286.26l-22.79-12.4.25-.14,22.79,12.4a2,2,0,0,1-.25.14" transform="translate(-120.12 -154.49)"/><path class="cls-12" d="M275.4,286.12l-22.79-12.4.29-.17L275.69,286l-.29.17" transform="translate(-120.12 -154.49)"/><path class="cls-13" d="M275.69,286l-22.79-12.4.39-.27,22.79,12.4-.39.27" transform="translate(-120.12 -154.49)"/><path class="cls-14" d="M276.08,285.68l-22.79-12.4a12.53,12.53,0,0,0,1.66-1.52l22.79,12.4a11.94,11.94,0,0,1-1.66,1.52" transform="translate(-120.12 -154.49)"/><path class="cls-13" d="M277.74,284.16,255,271.76c.19-.21.39-.43.58-.66l22.8,12.4-.59.66" transform="translate(-120.12 -154.49)"/><path class="cls-12" d="M278.33,283.5l-22.8-12.4.51-.64,22.8,12.4-.51.64" transform="translate(-120.12 -154.49)"/><path class="cls-11" d="M278.84,282.86,256,270.46c.17-.21.33-.43.5-.66l22.79,12.4c-.16.23-.33.45-.49.66" transform="translate(-120.12 -154.49)"/><path class="cls-10" d="M279.33,282.2l-22.79-12.4a2.43,2.43,0,0,0,.14-.2l.29-.42,22.8,12.4-.29.42-.15.2" transform="translate(-120.12 -154.49)"/><path class="cls-9" d="M279.77,281.58,257,269.18c.14-.19.27-.39.4-.59L280.16,281l-.39.59" transform="translate(-120.12 -154.49)"/><path class="cls-8" d="M280.16,281l-22.79-12.4.38-.61,22.79,12.4c-.12.21-.25.41-.38.61" transform="translate(-120.12 -154.49)"/><path class="cls-7" d="M280.54,280.38,257.75,268c.12-.21.25-.42.37-.64l22.79,12.4c-.12.22-.24.43-.37.64" transform="translate(-120.12 -154.49)"/><path class="cls-6" d="M280.91,279.74l-22.79-12.4c.13-.22.26-.45.38-.68l22.79,12.4c-.12.23-.25.46-.38.68" transform="translate(-120.12 -154.49)"/><path class="cls-5" d="M281.29,279.06l-22.79-12.4c.13-.25.26-.49.38-.74l22.8,12.39-.39.75" transform="translate(-120.12 -154.49)"/><path class="cls-4" d="M281.68,278.31l-22.8-12.39c.14-.28.27-.56.4-.84l22.8,12.4c-.13.28-.27.56-.4.83" transform="translate(-120.12 -154.49)"/><path class="cls-15" d="M282.08,277.48l-22.8-12.4c.15-.31.29-.63.43-.95l22.79,12.4-.42,1" transform="translate(-120.12 -154.49)"/><path class="cls-16" d="M282.5,276.53l-22.79-12.4c.15-.36.3-.72.44-1.1l22.8,12.4c-.15.38-.3.74-.45,1.1" transform="translate(-120.12 -154.49)"/><path class="cls-17" d="M283,275.43,260.15,263c.17-.42.33-.85.48-1.3l22.8,12.4c-.16.45-.32.88-.48,1.3" transform="translate(-120.12 -154.49)"/><path class="cls-18" d="M283.43,274.13l-22.8-12.4q.28-.78.54-1.62L284,272.51c-.17.55-.35,1.1-.53,1.62" transform="translate(-120.12 -154.49)"/><path class="cls-19" d="M284,272.51l-22.79-12.4c.2-.67.4-1.36.58-2.07l22.79,12.4c-.18.71-.38,1.4-.58,2.07" transform="translate(-120.12 -154.49)"/><path class="cls-20" d="M284.54,270.44,261.75,258c.23-.9.45-1.83.65-2.8l22.79,12.4c-.2,1-.41,1.9-.65,2.8" transform="translate(-120.12 -154.49)"/><path class="cls-21" d="M285.19,267.64l-22.79-12.4c.27-1.28.5-2.62.71-4l22.79,12.4c-.21,1.4-.44,2.74-.71,4" transform="translate(-120.12 -154.49)"/><path class="cls-22" d="M285.9,263.62l-22.79-12.4v-.06l22.79,12.4v.06" transform="translate(-120.12 -154.49)"/></g></g></g><g class="cls-2"><g class="cls-69"><g class="cls-2"><path class="cls-21" d="M285.91,263.56l-22.79-12.4,0-.19,22.79,12.4,0,.19" transform="translate(-120.12 -154.49)"/><path class="cls-22" d="M285.94,263.37,263.15,251c.15-1.06.27-2.13.36-3.22l22.79,12.4c-.09,1.09-.2,2.16-.36,3.22" transform="translate(-120.12 -154.49)"/><path class="cls-23" d="M286.3,260.15l-22.79-12.4c.12-1.54.17-3.11.16-4.72l22.79,12.4c0,1.6,0,3.18-.16,4.72" transform="translate(-120.12 -154.49)"/><path class="cls-28" d="M286.46,255.43,263.67,243c0-.23,0-.45,0-.68l22.8,12.4v.68" transform="translate(-120.12 -154.49)"/></g></g></g><g class="cls-2"><g class="cls-70"><g class="cls-2"><path class="cls-23" d="M286.46,254.75l-22.8-12.4v-.27l22.8,12.4v.27" transform="translate(-120.12 -154.49)"/><path class="cls-28" d="M286.46,254.48l-22.8-12.4a37,37,0,0,0-.25-4l22.79,12.4a37,37,0,0,1,.26,4" transform="translate(-120.12 -154.49)"/><path class="cls-24" d="M286.2,250.44,263.41,238a40.47,40.47,0,0,0-1.26-6.23c-1-3.64-2.35-5.79-3.89-6.63l22.79,12.4c1.55.84,2.86,3,3.9,6.63a41.65,41.65,0,0,1,1.25,6.23" transform="translate(-120.12 -154.49)"/></g></g></g><g class="cls-2"><g class="cls-71"><g class="cls-2"><path class="cls-18" d="M283.15,217.36,260.35,205c.38.07.76.14,1.12.23l22.8,12.4c-.37-.09-.75-.16-1.12-.23" transform="translate(-120.12 -154.49)"/><path class="cls-19" d="M284.27,217.59l-22.8-12.4c.46.11.91.23,1.35.38L285.61,218c-.44-.15-.89-.27-1.34-.38" transform="translate(-120.12 -154.49)"/><path class="cls-20" d="M285.61,218l-22.79-12.4c.44.14.87.31,1.29.49l22.8,12.4c-.43-.18-.86-.35-1.3-.49" transform="translate(-120.12 -154.49)"/><path class="cls-21" d="M286.91,218.46l-22.8-12.4a13.34,13.34,0,0,1,1.2.59l22.8,12.4a13.34,13.34,0,0,0-1.2-.59" transform="translate(-120.12 -154.49)"/></g></g></g><g class="cls-2"><g class="cls-72"><g class="cls-2"><path class="cls-24" d="M264.57,305.14l-22.79-12.4c-3.51-1.91-6.29-5.26-8.38-10.16a47.84,47.84,0,0,1-3.46-13.52l22.79,12.4A47.5,47.5,0,0,0,256.2,295c2.08,4.9,4.86,8.25,8.37,10.16" transform="translate(-120.12 -154.49)"/><path class="cls-28" d="M252.73,281.46l-22.79-12.4a78.33,78.33,0,0,1-.51-8.65l22.79,12.4a78.33,78.33,0,0,0,.51,8.65" transform="translate(-120.12 -154.49)"/><path class="cls-23" d="M252.22,272.81l-22.79-12.4v-.72q0-3.79.29-7.51l22.8,12.4c-.2,2.47-.3,5-.3,7.51v.72" transform="translate(-120.12 -154.49)"/><path class="cls-22" d="M252.52,264.58l-22.8-12.4c.17-2.12.41-4.23.72-6.31l22.79,12.4q-.47,3.12-.71,6.31" transform="translate(-120.12 -154.49)"/><path class="cls-21" d="M253.23,258.27l-22.79-12.4c.25-1.71.55-3.4.89-5.08l22.8,12.4c-.35,1.68-.65,3.37-.9,5.08" transform="translate(-120.12 -154.49)"/><path class="cls-20" d="M254.13,253.19l-22.8-12.4q.45-2.13,1-4.23L255.11,249c-.36,1.4-.69,2.81-1,4.23" transform="translate(-120.12 -154.49)"/><path class="cls-19" d="M255.11,249l-22.79-12.4q.47-1.81,1-3.6l22.79,12.4q-.54,1.78-1,3.6" transform="translate(-120.12 -154.49)"/><path class="cls-18" d="M256.13,245.36,233.34,233c.33-1.06.67-2.12,1-3.17l22.79,12.4c-.37,1.05-.71,2.11-1,3.17" transform="translate(-120.12 -154.49)"/><path class="cls-17" d="M257.17,242.19l-22.79-12.4c.33-.95.68-1.89,1.05-2.83l22.79,12.4c-.37.93-.72,1.88-1.05,2.83" transform="translate(-120.12 -154.49)"/><path class="cls-16" d="M258.22,239.36,235.43,227c.2-.52.41-1,.62-1.56l.41-1,22.79,12.4c-.13.33-.27.66-.41,1-.21.52-.42,1-.62,1.56" transform="translate(-120.12 -154.49)"/><path class="cls-15" d="M259.25,236.81l-22.79-12.4c.3-.7.6-1.38.91-2l22.79,12.4c-.31.66-.61,1.34-.91,2" transform="translate(-120.12 -154.49)"/><path class="cls-4" d="M260.16,234.77l-22.79-12.4c.25-.55.52-1.1.78-1.63l22.79,12.4c-.26.53-.52,1.08-.78,1.63" transform="translate(-120.12 -154.49)"/><path class="cls-5" d="M260.94,233.14l-22.79-12.4c.24-.48.48-1,.72-1.4l22.8,12.39c-.25.46-.49.93-.73,1.41" transform="translate(-120.12 -154.49)"/><path class="cls-6" d="M261.67,231.73l-22.8-12.39c.23-.43.46-.84.69-1.24l22.79,12.4c-.23.4-.46.81-.68,1.23" transform="translate(-120.12 -154.49)"/><path class="cls-7" d="M262.35,230.5l-22.79-12.4c.21-.38.43-.75.64-1.11l22.8,12.4c-.22.36-.44.73-.65,1.11" transform="translate(-120.12 -154.49)"/><path class="cls-8" d="M263,229.39,240.2,217l.63-1,22.8,12.4c-.22.32-.42.66-.63,1" transform="translate(-120.12 -154.49)"/><path class="cls-9" d="M263.63,228.39,240.83,216c.21-.33.42-.64.63-1l22.79,12.4c-.21.31-.42.62-.62.95" transform="translate(-120.12 -154.49)"/><path class="cls-10" d="M264.25,227.44,241.46,215q.31-.47.63-.9l22.8,12.4c-.22.29-.43.59-.64.9" transform="translate(-120.12 -154.49)"/><path class="cls-11" d="M264.89,226.54l-22.8-12.4c.23-.31.45-.61.68-.9l22.79,12.4c-.23.29-.45.59-.67.9" transform="translate(-120.12 -154.49)"/><path class="cls-12" d="M265.56,225.64l-22.79-12.4c.25-.32.5-.63.76-.94l22.79,12.4c-.26.31-.51.62-.76.94" transform="translate(-120.12 -154.49)"/><path class="cls-13" d="M266.32,224.7l-22.79-12.4c.31-.38.64-.74,1-1.1l22.8,12.4c-.33.36-.65.72-1,1.1" transform="translate(-120.12 -154.49)"/><path class="cls-14" d="M267.29,223.6l-22.8-12.4a25.4,25.4,0,0,1,3.37-3l22.79,12.4a24.73,24.73,0,0,0-3.36,3" transform="translate(-120.12 -154.49)"/><path class="cls-13" d="M270.65,220.57l-22.79-12.4c.31-.23.63-.44.95-.65l22.79,12.4c-.32.2-.63.42-1,.65" transform="translate(-120.12 -154.49)"/><path class="cls-12" d="M271.6,219.92l-22.79-12.4q.39-.26.78-.48l22.79,12.4-.78.48" transform="translate(-120.12 -154.49)"/><path class="cls-11" d="M272.38,219.44,249.59,207l.74-.41L273.12,219c-.25.13-.49.26-.74.41" transform="translate(-120.12 -154.49)"/><path class="cls-10" d="M273.12,219l-22.79-12.4.71-.35,22.79,12.4-.71.35" transform="translate(-120.12 -154.49)"/><path class="cls-9" d="M273.83,218.68,251,206.28c.24-.12.49-.22.73-.32l22.79,12.39-.73.33" transform="translate(-120.12 -154.49)"/><path class="cls-8" d="M274.56,218.35,251.77,206c.26-.11.51-.21.77-.3l22.79,12.4-.77.29" transform="translate(-120.12 -154.49)"/><path class="cls-7" d="M275.33,218.06l-22.79-12.4c.27-.1.55-.19.83-.27l22.79,12.4c-.28.08-.55.17-.83.27" transform="translate(-120.12 -154.49)"/><path class="cls-6" d="M276.16,217.79l-22.79-12.4c.31-.09.63-.18.94-.25l22.8,12.4c-.32.07-.64.16-.95.25" transform="translate(-120.12 -154.49)"/><path class="cls-5" d="M277.11,217.54l-22.8-12.4c.35-.08.7-.15,1.06-.21l22.79,12.4q-.53.09-1.05.21" transform="translate(-120.12 -154.49)"/><path class="cls-4" d="M278.16,217.33l-22.79-12.4.43-.07.49-.06,22.8,12.4-.49.06-.44.07" transform="translate(-120.12 -154.49)"/><path class="cls-15" d="M279.09,217.2l-22.8-12.4c.33,0,.65-.05,1-.05l22.79,12.4c-.33,0-.66,0-1,0" transform="translate(-120.12 -154.49)"/><path class="cls-16" d="M280.07,217.15l-22.79-12.4c.42,0,.86,0,1.3,0l22.79,12.4c-.44,0-.87,0-1.3,0" transform="translate(-120.12 -154.49)"/><path class="cls-17" d="M281.37,217.18l-22.79-12.4c.58,0,1.17.1,1.77.18l22.8,12.4c-.6-.08-1.19-.15-1.78-.18" transform="translate(-120.12 -154.49)"/></g></g></g><path class="cls-63" d="M283.15,217.36c5.86,1,10.4,4.82,13.4,11.86,2.63,6.05,4,13.54,4,22.73a90.42,90.42,0,0,1-6.62,34.44q-7.56,18.87-19.75,20.55a16.58,16.58,0,0,1-4.54-.11c-6-.95-10.41-4.81-13.41-11.85-2.68-6.12-4-13.77-4-22.89a89.47,89.47,0,0,1,6.62-34.29c5.15-12.59,11.72-19.41,19.76-20.54A16.65,16.65,0,0,1,283.15,217.36Zm2.76,46.2a52.79,52.79,0,0,0,.55-8.81A39.19,39.19,0,0,0,285,244.21c-1.27-4.45-2.95-6.67-5-7a4.16,4.16,0,0,0-1.17,0c-2.61.36-5.17,3.14-7.57,8.54a52.63,52.63,0,0,0-4.47,14.74,60.88,60.88,0,0,0-.6,8.74,39.11,39.11,0,0,0,1.51,10.53c1.27,4.46,2.95,6.68,5,7a3.72,3.72,0,0,0,1,0c1.83-.26,3.77-1.89,5.83-4.77,3.13-4.39,5.25-10.44,6.43-18.44" transform="translate(-120.12 -154.49)"/><g class="cls-2"><g class="cls-73"><g class="cls-2"><path class="cls-24" d="M233.42,324.65l-22.79-12.4a10,10,0,0,1-3.17-3Q195.75,294,189,261.43l22.79,12.4q6.76,32.64,18.47,47.86a10.15,10.15,0,0,0,3.17,3" transform="translate(-120.12 -154.49)"/></g></g></g><g class="cls-2"><g class="cls-74"><g class="cls-2"><path class="cls-6" d="M246,209.08l-22.8-12.4.13,0,22.79,12.4-.12,0" transform="translate(-120.12 -154.49)"/><path class="cls-5" d="M246.07,209.05l-22.79-12.4.34-.07,22.8,12.4-.35.07" transform="translate(-120.12 -154.49)"/><path class="cls-4" d="M246.42,209l-22.8-12.4.14,0,.23,0,22.79,12.4-.22,0-.14,0" transform="translate(-120.12 -154.49)"/><path class="cls-15" d="M246.78,208.93,224,196.53l.38,0,22.8,12.4-.39,0" transform="translate(-120.12 -154.49)"/><path class="cls-16" d="M247.17,208.91l-22.8-12.4h.4l22.79,12.4h-.39" transform="translate(-120.12 -154.49)"/><path class="cls-17" d="M247.56,208.92l-22.79-12.4.4,0L248,209l-.4,0" transform="translate(-120.12 -154.49)"/><path class="cls-18" d="M248,209l-22.79-12.4.4.08,22.8,12.4L248,209" transform="translate(-120.12 -154.49)"/><path class="cls-19" d="M248.37,209l-22.8-12.4.42.12,22.8,12.4-.42-.12" transform="translate(-120.12 -154.49)"/><path class="cls-20" d="M248.79,209.16,226,196.76a3.34,3.34,0,0,1,.44.17l22.79,12.39-.43-.16" transform="translate(-120.12 -154.49)"/><path class="cls-21" d="M249.22,209.32l-22.79-12.39a3.55,3.55,0,0,1,.44.21l22.8,12.4-.45-.22" transform="translate(-120.12 -154.49)"/></g></g></g><g class="cls-2"><g class="cls-75"><g class="cls-2"><path class="cls-24" d="M185.1,331.71l-22.8-12.4c-1.55-.85-2.83-3.17-4-7l22.79,12.4c1.18,3.81,2.47,6.14,4,7" transform="translate(-120.12 -154.49)"/></g></g></g><g class="cls-2"><g class="cls-76"><g class="cls-2"><path class="cls-23" d="M229.21,281.83l-22.79-12.4c.08-1.1.16-2.18.24-3.25l22.8,12.4c-.09,1.07-.17,2.15-.25,3.25" transform="translate(-120.12 -154.49)"/><path class="cls-22" d="M229.46,278.58l-22.8-12.4q1.34-17,3.33-30.5l22.79,12.4q-2,13.47-3.32,30.5" transform="translate(-120.12 -154.49)"/><path class="cls-21" d="M232.78,248.08,210,235.68q1.15-7.83,2.53-14.47l22.79,12.4q-1.37,6.64-2.53,14.47" transform="translate(-120.12 -154.49)"/><path class="cls-20" d="M235.31,233.61l-22.79-12.4q.9-4.38,1.91-8.24l22.79,12.4c-.67,2.57-1.3,5.32-1.91,8.24" transform="translate(-120.12 -154.49)"/><path class="cls-19" d="M237.22,225.37,214.43,213c.48-1.86,1-3.62,1.49-5.3l22.8,12.4c-.52,1.68-1,3.44-1.5,5.3" transform="translate(-120.12 -154.49)"/><path class="cls-18" d="M238.72,220.07l-22.8-12.4c.39-1.26.79-2.48,1.19-3.64l22.79,12.4c-.4,1.16-.8,2.37-1.18,3.64" transform="translate(-120.12 -154.49)"/><path class="cls-17" d="M239.9,216.43,217.11,204c.16-.46.32-.9.48-1.34l.12-.32,22.8,12.4-.12.31c-.17.44-.33.89-.49,1.35" transform="translate(-120.12 -154.49)"/><path class="cls-16" d="M240.51,214.77l-22.8-12.4.21-.52,22.8,12.4-.21.52" transform="translate(-120.12 -154.49)"/><path class="cls-15" d="M240.72,214.25l-22.8-12.4.2-.44,22.79,12.4c-.06.14-.13.29-.19.44" transform="translate(-120.12 -154.49)"/><path class="cls-4" d="M240.91,213.81l-22.79-12.4.18-.37,22.79,12.4-.18.37" transform="translate(-120.12 -154.49)"/><path class="cls-5" d="M241.09,213.44,218.3,201c0-.11.11-.22.17-.33l22.79,12.4c-.06.1-.11.22-.17.33" transform="translate(-120.12 -154.49)"/><path class="cls-6" d="M241.26,213.11l-22.79-12.4.16-.3,22.8,12.4-.17.3" transform="translate(-120.12 -154.49)"/><path class="cls-7" d="M241.43,212.81l-22.8-12.4.16-.27,22.79,12.4-.15.27" transform="translate(-120.12 -154.49)"/><path class="cls-8" d="M241.58,212.54l-22.79-12.4c.05-.09.11-.17.16-.25l22.79,12.39-.16.26" transform="translate(-120.12 -154.49)"/><path class="cls-9" d="M241.74,212.28,219,199.89c.05-.09.11-.17.16-.25L241.9,212l-.16.24" transform="translate(-120.12 -154.49)"/><path class="cls-10" d="M241.9,212l-22.79-12.4.17-.24,22.79,12.4-.17.24" transform="translate(-120.12 -154.49)"/><path class="cls-11" d="M242.07,211.8l-22.79-12.4.18-.24,22.79,12.4-.18.24" transform="translate(-120.12 -154.49)"/><path class="cls-12" d="M242.25,211.56l-22.79-12.4.2-.24,22.79,12.4-.2.24" transform="translate(-120.12 -154.49)"/><path class="cls-13" d="M242.45,211.32l-22.79-12.4a2.55,2.55,0,0,1,.26-.3l22.8,12.4-.27.3" transform="translate(-120.12 -154.49)"/><path class="cls-14" d="M242.72,211l-22.8-12.4a6.41,6.41,0,0,1,1-.9l22.79,12.4a5.93,5.93,0,0,0-1,.9" transform="translate(-120.12 -154.49)"/><path class="cls-13" d="M243.71,210.12l-22.79-12.4.31-.22L244,209.9l-.31.22" transform="translate(-120.12 -154.49)"/><path class="cls-12" d="M244,209.9l-22.79-12.4.26-.16,22.79,12.4-.26.16" transform="translate(-120.12 -154.49)"/><path class="cls-11" d="M244.28,209.74l-22.79-12.4.24-.13,22.79,12.4-.24.13" transform="translate(-120.12 -154.49)"/><path class="cls-10" d="M244.52,209.61l-22.79-12.4.24-.12,22.8,12.4-.25.12" transform="translate(-120.12 -154.49)"/><path class="cls-9" d="M244.77,209.49,222,197.09l.26-.11L245,209.38l-.25.11" transform="translate(-120.12 -154.49)"/><path class="cls-8" d="M245,209.38,222.23,197a1.69,1.69,0,0,1,.27-.1l22.79,12.39-.27.11" transform="translate(-120.12 -154.49)"/><path class="cls-7" d="M245.29,209.27,222.5,196.88l.29-.1,22.8,12.4-.3.09" transform="translate(-120.12 -154.49)"/><path class="cls-6" d="M245.59,209.18l-22.8-12.4a2.25,2.25,0,0,1,.35-.09l22.79,12.4a2.14,2.14,0,0,0-.34.09" transform="translate(-120.12 -154.49)"/><path class="cls-5" d="M245.93,209.09l-22.79-12.4h0l22.8,12.4h0" transform="translate(-120.12 -154.49)"/></g></g></g><polygon class="cls-77" points="69.58 138.94 46.78 126.54 65.23 74.53 88.02 86.93 69.58 138.94"/><g class="cls-2"><g class="cls-78"><g class="cls-2"><path class="cls-17" d="M208.14,241.41,185.35,229l.3-.82,22.8,12.4c-.11.27-.21.54-.31.81" transform="translate(-120.12 -154.49)"/><path class="cls-16" d="M208.45,240.6l-22.8-12.4q.18-.45.36-.87l22.79,12.4c-.12.28-.24.57-.35.87" transform="translate(-120.12 -154.49)"/><path class="cls-15" d="M208.8,239.73,186,227.33c.1-.24.2-.47.31-.7L209.11,239c-.1.23-.21.46-.31.7" transform="translate(-120.12 -154.49)"/><path class="cls-4" d="M209.11,239l-22.79-12.4c.09-.19.18-.38.28-.57l22.79,12.4-.28.57" transform="translate(-120.12 -154.49)"/><path class="cls-5" d="M209.39,238.46l-22.79-12.4c.08-.17.16-.33.25-.49L209.64,238c-.08.16-.17.32-.25.49" transform="translate(-120.12 -154.49)"/><path class="cls-6" d="M209.64,238l-22.79-12.4.23-.43,22.8,12.4-.24.43" transform="translate(-120.12 -154.49)"/><path class="cls-7" d="M209.88,237.54l-22.8-12.4.22-.37,22.8,12.39-.22.38" transform="translate(-120.12 -154.49)"/><path class="cls-8" d="M210.1,237.16l-22.8-12.39.21-.34,22.8,12.4-.21.33" transform="translate(-120.12 -154.49)"/><path class="cls-9" d="M210.31,236.83l-22.8-12.4.21-.31,22.8,12.39-.21.32" transform="translate(-120.12 -154.49)"/><path class="cls-10" d="M210.52,236.51l-22.8-12.39q.1-.17.21-.3l22.8,12.39-.21.3" transform="translate(-120.12 -154.49)"/><path class="cls-11" d="M210.73,236.21l-22.8-12.39.22-.29,22.79,12.4-.21.28" transform="translate(-120.12 -154.49)"/><path class="cls-12" d="M210.94,235.93l-22.79-12.4.24-.31,22.8,12.4c-.08.1-.17.2-.25.31" transform="translate(-120.12 -154.49)"/><path class="cls-13" d="M211.19,235.62l-22.8-12.4.31-.34,22.79,12.4-.3.34" transform="translate(-120.12 -154.49)"/><path class="cls-14" d="M211.49,235.28l-22.79-12.4a7.28,7.28,0,0,1,1-.93l22.79,12.4a7.28,7.28,0,0,0-1,.93" transform="translate(-120.12 -154.49)"/><path class="cls-13" d="M212.51,234.35,189.72,222l.3-.2,22.79,12.4-.3.2" transform="translate(-120.12 -154.49)"/><path class="cls-12" d="M212.81,234.15,190,221.75l.24-.15L213.05,234c-.08.05-.16.09-.24.15" transform="translate(-120.12 -154.49)"/><path class="cls-11" d="M213.05,234l-22.79-12.4.21-.12,22.8,12.4-.22.12" transform="translate(-120.12 -154.49)"/><path class="cls-10" d="M213.27,233.88l-22.8-12.4.21-.1,22.8,12.4-.21.1" transform="translate(-120.12 -154.49)"/><path class="cls-9" d="M213.48,233.78l-22.8-12.4.22-.1,22.79,12.4-.21.1" transform="translate(-120.12 -154.49)"/><path class="cls-8" d="M213.69,233.68l-22.79-12.4.22-.08,22.8,12.4-.23.08" transform="translate(-120.12 -154.49)"/><path class="cls-7" d="M213.92,233.6l-22.8-12.4.26-.09,22.79,12.4-.25.09" transform="translate(-120.12 -154.49)"/><path class="cls-6" d="M214.17,233.51l-22.79-12.4.27-.07h0l22.79,12.39h0l-.27.07" transform="translate(-120.12 -154.49)"/><path class="cls-5" d="M214.47,233.43,191.68,221l.37-.08,22.79,12.4-.37.07" transform="translate(-120.12 -154.49)"/><path class="cls-4" d="M214.84,233.36,192.05,221l.15,0,.22,0,22.79,12.4-.22,0-.15,0" transform="translate(-120.12 -154.49)"/><path class="cls-15" d="M215.21,233.31l-22.79-12.4.36,0,22.79,12.4-.36,0" transform="translate(-120.12 -154.49)"/><path class="cls-16" d="M215.57,233.29l-22.79-12.4h.34l22.8,12.4h-.35" transform="translate(-120.12 -154.49)"/><path class="cls-17" d="M215.92,233.3l-22.8-12.4.33,0,22.8,12.4-.33,0" transform="translate(-120.12 -154.49)"/><path class="cls-18" d="M216.25,233.33l-22.8-12.4.32.06,22.8,12.4-.32-.06" transform="translate(-120.12 -154.49)"/><path class="cls-19" d="M216.57,233.39,193.77,221l.31.09,22.8,12.4-.31-.09" transform="translate(-120.12 -154.49)"/><path class="cls-20" d="M216.88,233.48l-22.8-12.4.31.12,22.8,12.4-.31-.12" transform="translate(-120.12 -154.49)"/><path class="cls-21" d="M217.19,233.6l-22.8-12.4.3.14,22.79,12.4-.29-.14" transform="translate(-120.12 -154.49)"/></g></g></g><g class="cls-2"><g class="cls-79"><g class="cls-2"><path class="cls-24" d="M181.08,324.72l-22.79-12.4q-5.65-19.83-12-73.52l22.79,12.4q6.39,53.7,12,73.52" transform="translate(-120.12 -154.49)"/><path class="cls-28" d="M169.06,251.2l-22.79-12.4q-.83-6.93-1.67-14.43l22.8,12.4q.84,7.5,1.66,14.43" transform="translate(-120.12 -154.49)"/></g></g></g><g class="cls-2"><g class="cls-80"><g class="cls-2"><path class="cls-28" d="M167.4,236.77l-22.8-12.4c0-.46,0-.92,0-1.36l22.8,12.4c0,.44,0,.9.05,1.36" transform="translate(-120.12 -154.49)"/><path class="cls-23" d="M167.35,235.41,144.55,223c0-.55,0-1.08.06-1.61l22.79,12.4c0,.53-.06,1.06-.05,1.61" transform="translate(-120.12 -154.49)"/><path class="cls-22" d="M167.4,233.8l-22.79-12.4c0-.38.07-.76.13-1.13l22.79,12.39c-.06.38-.1.76-.13,1.14" transform="translate(-120.12 -154.49)"/><path class="cls-21" d="M167.53,232.66l-22.79-12.39q.06-.45.15-.87l22.79,12.4c-.06.28-.11.57-.15.86" transform="translate(-120.12 -154.49)"/><path class="cls-20" d="M167.68,231.8l-22.79-12.4c.05-.24.1-.47.16-.69l22.79,12.4c-.05.22-.11.45-.16.69" transform="translate(-120.12 -154.49)"/><path class="cls-19" d="M167.84,231.11l-22.79-12.4c0-.2.1-.39.16-.57L168,230.54c-.05.18-.11.37-.16.57" transform="translate(-120.12 -154.49)"/><path class="cls-18" d="M168,230.54l-22.79-12.4c0-.17.1-.33.16-.49l22.79,12.4c0,.16-.11.32-.16.49" transform="translate(-120.12 -154.49)"/><path class="cls-17" d="M168.16,230.05l-22.79-12.4c0-.14.1-.28.16-.42l22.79,12.4c-.06.14-.11.28-.16.42" transform="translate(-120.12 -154.49)"/><path class="cls-16" d="M168.32,229.63l-22.79-12.4a2.87,2.87,0,0,1,.15-.37l22.79,12.4-.15.37" transform="translate(-120.12 -154.49)"/><path class="cls-15" d="M168.47,229.26l-22.79-12.4.15-.35,22.8,12.4c-.06.12-.11.23-.16.35" transform="translate(-120.12 -154.49)"/><path class="cls-4" d="M168.63,228.91l-22.8-12.4c0-.11.11-.21.16-.32l0-.08,22.79,12.4,0,.08-.15.32" transform="translate(-120.12 -154.49)"/><path class="cls-5" d="M168.82,228.51,146,216.11c0-.09.09-.18.14-.27L169,228.24l-.14.27" transform="translate(-120.12 -154.49)"/><path class="cls-6" d="M169,228.24l-22.79-12.4c0-.08.08-.16.13-.24L169.09,228l-.13.24" transform="translate(-120.12 -154.49)"/><path class="cls-7" d="M169.09,228,146.3,215.6l.13-.22,22.79,12.4-.13.22" transform="translate(-120.12 -154.49)"/><path class="cls-8" d="M169.22,227.78l-22.79-12.4a1.64,1.64,0,0,1,.14-.22l22.79,12.4-.14.22" transform="translate(-120.12 -154.49)"/><path class="cls-9" d="M169.36,227.56l-22.79-12.4.14-.21,22.79,12.4-.14.21" transform="translate(-120.12 -154.49)"/><path class="cls-10" d="M169.5,227.35,146.71,215l.15-.22,22.79,12.4-.15.22" transform="translate(-120.12 -154.49)"/><path class="cls-11" d="M169.65,227.13l-22.79-12.4.16-.21,22.79,12.4-.16.21" transform="translate(-120.12 -154.49)"/><path class="cls-12" d="M169.81,226.92,147,214.52l.19-.24L170,226.68l-.19.24" transform="translate(-120.12 -154.49)"/><path class="cls-13" d="M170,226.68l-22.79-12.4c.08-.1.17-.19.26-.29l22.79,12.4c-.09.09-.17.19-.26.29" transform="translate(-120.12 -154.49)"/><path class="cls-14" d="M170.26,226.39,147.47,214a7.28,7.28,0,0,1,1.06-1l22.79,12.4a7.28,7.28,0,0,0-1.06.95" transform="translate(-120.12 -154.49)"/><path class="cls-13" d="M171.32,225.44,148.53,213l.34-.24,22.8,12.4-.35.24" transform="translate(-120.12 -154.49)"/><path class="cls-12" d="M171.67,225.2l-22.8-12.4.3-.18L172,225l-.29.18" transform="translate(-120.12 -154.49)"/><path class="cls-11" d="M172,225l-22.79-12.4.29-.16,22.79,12.4L172,225" transform="translate(-120.12 -154.49)"/><path class="cls-10" d="M172.25,224.86l-22.79-12.4.29-.15,22.8,12.4-.3.15" transform="translate(-120.12 -154.49)"/><path class="cls-9" d="M172.55,224.71l-22.8-12.4.32-.13,22.79,12.39-.31.14" transform="translate(-120.12 -154.49)"/><path class="cls-8" d="M172.86,224.57l-22.79-12.39.34-.14,22.8,12.4-.35.13" transform="translate(-120.12 -154.49)"/><path class="cls-7" d="M173.21,224.44,150.41,212l.4-.13,22.79,12.4-.39.13" transform="translate(-120.12 -154.49)"/><path class="cls-6" d="M173.6,224.31l-22.79-12.4.47-.12.09,0,22.79,12.4-.08,0-.48.12" transform="translate(-120.12 -154.49)"/><path class="cls-5" d="M174.16,224.17l-22.79-12.4c.19-.05.37-.08.55-.11l22.8,12.39-.56.12" transform="translate(-120.12 -154.49)"/><path class="cls-4" d="M174.72,224.05l-22.8-12.39.22,0,.31,0,22.8,12.4-.32,0-.21,0" transform="translate(-120.12 -154.49)"/><path class="cls-15" d="M175.25,224l-22.8-12.4.5,0L175.74,224l-.49,0" transform="translate(-120.12 -154.49)"/><path class="cls-16" d="M175.74,224,153,211.56h.46l22.8,12.4h-.47" transform="translate(-120.12 -154.49)"/><path class="cls-17" d="M176.21,224l-22.8-12.4.43.05L176.63,224l-.42,0" transform="translate(-120.12 -154.49)"/><path class="cls-18" d="M176.63,224l-22.79-12.4.4.07L177,224.08l-.4-.07" transform="translate(-120.12 -154.49)"/><path class="cls-19" d="M177,224.08l-22.79-12.4.37.11,22.79,12.4-.37-.11" transform="translate(-120.12 -154.49)"/><path class="cls-20" d="M177.4,224.19l-22.79-12.4.35.13,22.8,12.4-.36-.13" transform="translate(-120.12 -154.49)"/><path class="cls-21" d="M177.76,224.32,155,211.92l.33.16,22.79,12.4-.32-.16" transform="translate(-120.12 -154.49)"/></g></g></g><path class="cls-63" d="M253,222.88c-3.3,9-6,23.69-8.22,43.92-2.15,19.64-2.92,34.75-2.41,45.5a20.39,20.39,0,0,1-1,8c-1,2.75-2.55,4.38-4.45,4.88l-.45.08c-2,.29-4.14-.85-6.15-3.56q-11.72-15.26-18.47-47.86-8.21,23.88-12.12,35.81c-5,14.06-9.18,21.52-12.72,22.39-2.42.36-4.24-2.08-5.86-7.31q-6.37-22.39-13.68-88a15.72,15.72,0,0,1,1.38-8.18,7.68,7.68,0,0,1,5.3-4.4c.29-.07.57-.13.85-.17q5.64-.79,6.43,7.65c2.55,24.42,5.36,44.93,8.34,61.75l18.44-52c1.7-4.71,3.77-7.39,6.3-8,.19,0,.37-.08.55-.1,3.38-.48,5.47,2.58,6.32,9.06a271.21,271.21,0,0,0,7.9,39.43c2.23-30.4,6-52.57,11.18-66.75,1.27-3.45,3.12-5.43,5.56-6,.2-.05.41-.09.61-.12a5.41,5.41,0,0,1,4.67,1.77,9.28,9.28,0,0,1,2.57,6.36A14.08,14.08,0,0,1,253,222.88Z" transform="translate(-120.12 -154.49)"/></g></svg>